<svg width="41" height="31" viewBox="0 0 41 31" fill="none" xmlns="http://www.w3.org/2000/svg">
<path d="M38.4747 23.7127H2.17997C1.18187 23.7127 0.365234 22.8961 0.365234 21.898V1.93583C0.365234 0.937726 1.18187 0.121094 2.17997 0.121094H38.4747C39.4728 0.121094 40.2895 0.937726 40.2895 1.93583V21.898C40.2895 22.8961 39.4728 23.7127 38.4747 23.7127Z" fill="#19AD58"/>
<path d="M33.9369 16.4531C31.85 16.4531 29.9445 17.4512 28.8557 19.0845C27.9483 18.6308 26.9502 18.2679 25.7706 18.2679C22.5948 18.2679 19.9635 20.627 19.5098 23.7121H38.4738C39.3811 23.7121 40.107 23.0769 40.2885 22.1695C39.9256 18.9938 37.2035 16.4531 33.9369 16.4531Z" fill="#0D8944"/>
<path d="M34.845 21.8986H5.80916C5.80916 19.9024 4.1759 18.2692 2.17969 18.2692V5.566C4.1759 5.566 5.80916 3.93274 5.80916 1.93652H34.845C34.845 3.93274 36.4782 5.566 38.4744 5.566V18.2692C36.4782 18.2692 34.845 19.9024 34.845 21.8986Z" fill="#47CA57"/>
<path d="M33.9394 16.4531C31.8524 16.4531 29.947 17.4512 28.8581 19.0845C27.9508 18.6308 26.9526 18.2679 25.7731 18.2679C23.2324 18.2679 21.0547 19.7197 20.0566 21.8973H34.8468C34.8468 19.9011 36.3893 18.3586 38.3855 18.2679C37.2059 17.179 35.6634 16.4531 33.9394 16.4531Z" fill="#0E9347"/>
<path d="M20.3273 20.0826C24.3363 20.0826 27.5863 16.4265 27.5863 11.9163C27.5863 7.40619 24.3363 3.75 20.3273 3.75C16.3183 3.75 13.0684 7.40619 13.0684 11.9163C13.0684 16.4265 16.3183 20.0826 20.3273 20.0826Z" fill="#19AD58"/>
<path d="M9.43778 13.732C10.44 13.732 11.2525 12.9195 11.2525 11.9173C11.2525 10.915 10.44 10.1025 9.43778 10.1025C8.43553 10.1025 7.62305 10.915 7.62305 11.9173C7.62305 12.9195 8.43553 13.732 9.43778 13.732Z" fill="#19AD58"/>
<path d="M31.2171 13.732C32.2193 13.732 33.0318 12.9195 33.0318 11.9173C33.0318 10.915 32.2193 10.1025 31.2171 10.1025C30.2148 10.1025 29.4023 10.915 29.4023 11.9173C29.4023 12.9195 30.2148 13.732 31.2171 13.732Z" fill="#19AD58"/>
<path d="M21.2341 11.0095H19.4194C18.875 11.0095 18.512 10.6466 18.512 10.1021C18.512 9.55771 18.875 9.19476 19.4194 9.19476H22.1415C22.6859 9.19476 23.0488 8.83182 23.0488 8.28739C23.0488 7.74297 22.6859 7.38003 22.1415 7.38003H21.2341C21.2341 6.8356 20.8712 6.47266 20.3267 6.47266C19.7823 6.47266 19.4194 6.8356 19.4194 7.38003C17.8768 7.38003 16.6973 8.55961 16.6973 10.1021C16.6973 11.6447 17.8768 12.8242 19.4194 12.8242H21.2341C21.7785 12.8242 22.1415 13.1872 22.1415 13.7316C22.1415 14.276 21.7785 14.639 21.2341 14.639H18.512C17.9676 14.639 17.6046 15.0019 17.6046 15.5463C17.6046 16.0908 17.9676 16.4537 18.512 16.4537H19.4194C19.4194 16.9981 19.7823 17.3611 20.3267 17.3611C20.8712 17.3611 21.2341 16.9981 21.2341 16.4537C22.7766 16.4537 23.9562 15.2741 23.9562 13.7316C23.9562 12.1891 22.7766 11.0095 21.2341 11.0095Z" fill="#55E466"/>
<path d="M23.9571 30.9717C27.4649 30.9717 30.3086 28.128 30.3086 24.6201C30.3086 21.1123 27.4649 18.2686 23.9571 18.2686C20.4492 18.2686 17.6055 21.1123 17.6055 24.6201C17.6055 28.128 20.4492 30.9717 23.9571 30.9717Z" fill="#FFCA5D"/>
<path d="M32.1231 29.1563C35.631 29.1563 38.4747 26.3126 38.4747 22.8047C38.4747 19.2968 35.631 16.4531 32.1231 16.4531C28.6152 16.4531 25.7715 19.2968 25.7715 22.8047C25.7715 26.3126 28.6152 29.1563 32.1231 29.1563Z" fill="#F6B545"/>
<path d="M32.1231 16.4531C28.5843 16.4531 25.7715 19.266 25.7715 22.8047C25.7715 26.3434 28.5843 29.1563 32.1231 29.1563C35.6618 29.1563 38.4747 26.3434 38.4747 22.8047C38.4747 19.266 35.6618 16.4531 32.1231 16.4531ZM32.1231 27.3416C29.5824 27.3416 27.5862 25.3453 27.5862 22.8047C27.5862 20.2641 29.5824 18.2679 32.1231 18.2679C34.6637 18.2679 36.6599 20.2641 36.6599 22.8047C36.6599 25.3453 34.6637 27.3416 32.1231 27.3416Z" fill="#FFCB5B"/>
<path d="M32.123 29.0665C35.6618 29.1572 38.4746 26.2537 38.4746 22.8057H38.3839C37.9302 22.8057 37.5673 23.1686 37.4765 23.6223C37.2951 24.8926 36.6599 26.0722 35.7525 26.8888C35.0266 27.6147 34.0285 28.0684 32.9397 28.2499C32.486 28.2499 32.123 28.6128 32.123 29.0665Z" fill="#F6B545"/>
<path d="M32.1231 16.5441C28.5843 16.4533 25.7715 19.3569 25.7715 22.8049H25.8622C26.3159 22.8049 26.6789 22.442 26.7696 21.9883C26.9511 20.718 27.5862 19.5384 28.4936 18.7217C29.2195 17.9959 30.2176 17.5422 31.3064 17.3607C31.7601 17.3607 32.1231 16.9977 32.1231 16.5441Z" fill="#FFE27A"/>
<path d="M28.2211 23.4406C28.2211 20.8999 30.2173 18.9037 32.7579 18.9037C33.8468 18.9037 34.8449 19.2667 35.6615 19.9926C34.7542 18.9037 33.5746 18.2686 32.1228 18.2686C29.5821 18.2686 27.5859 20.2648 27.5859 22.8054C27.5859 24.2572 28.2211 25.4368 29.2192 26.2534C28.584 25.5275 28.2211 24.5294 28.2211 23.4406Z" fill="#F19920"/>
<path d="M34.8458 25.6181C34.7551 25.6181 34.6643 25.6181 34.5736 25.5274C34.3921 25.3459 34.3921 25.0737 34.5736 24.8922C35.118 24.3478 35.3902 23.5311 35.3902 22.8052C35.3902 22.533 35.5717 22.3516 35.8439 22.3516C36.1161 22.3516 36.2976 22.533 36.2976 22.8052C36.2976 23.8034 35.9347 24.8015 35.2995 25.5274C35.118 25.6181 34.9366 25.6181 34.8458 25.6181Z" fill="#FFCB5B"/>
<path d="M32.1242 25.5282C31.5797 25.5282 31.2168 25.1653 31.2168 24.6208V20.9914C31.2168 20.4469 31.5797 20.084 32.1242 20.084C32.6686 20.084 33.0315 20.4469 33.0315 20.9914V24.6208C33.0315 25.1653 32.6686 25.5282 32.1242 25.5282Z" fill="#F19920"/>
<path d="M27.6761 18.2686C29.4001 19.3574 30.7611 21.1721 31.1241 23.2591C31.2916 24.5012 31.3408 27.3377 30.1968 28.7465C27.6631 27.9142 25.8613 25.5469 25.8613 22.7147C25.8613 20.9907 26.5872 19.4481 27.6761 18.2686Z" fill="#F19920"/>
<path d="M29.2192 26.2535C28.584 25.4369 28.1304 24.4388 28.1304 23.3499C28.1304 22.0796 28.6748 20.9 29.5822 20.0834C29.4007 19.8112 29.2192 19.6297 29.0377 19.4482C28.1304 20.2649 27.5859 21.4445 27.5859 22.8055C27.5859 24.2573 28.2211 25.4369 29.2192 26.2535ZM31.2154 23.3499V24.6202C31.2154 25.1647 31.5784 25.5276 32.1228 25.5276C32.6672 25.5276 33.0302 25.1647 33.0302 24.6202V24.4388C32.4857 23.9851 31.8506 23.6221 31.2154 23.3499Z" fill="#E78825"/>
<path d="M35.2081 27.3418C34.5729 27.7955 33.7563 28.0677 32.9397 28.2492C32.486 28.3399 32.123 28.7029 32.123 29.1565C33.3934 29.1565 34.4822 28.7936 35.4803 28.1584L35.2081 27.3418Z" fill="#F19920"/>
<path d="M27.5862 18.3594C26.4974 19.539 25.7715 21.0815 25.7715 22.8055H25.8622C26.3159 22.8055 26.6789 22.4425 26.7696 21.9889C26.9511 20.7185 27.5862 19.6297 28.4029 18.8131C28.1306 18.7223 27.8584 18.5408 27.5862 18.3594Z" fill="#FFCB5B"/>
<path d="M23.9571 30.9717C27.4649 30.9717 30.3086 28.128 30.3086 24.6201C30.3086 21.1123 27.4649 18.2686 23.9571 18.2686C20.4492 18.2686 17.6055 21.1123 17.6055 24.6201C17.6055 28.128 20.4492 30.9717 23.9571 30.9717Z" fill="#F6B545"/>
<path d="M23.9571 18.2686C20.4183 18.2686 17.6055 21.0814 17.6055 24.6201C17.6055 28.1589 20.4183 30.9717 23.9571 30.9717C27.4958 30.9717 30.3086 28.1589 30.3086 24.6201C30.3086 21.0814 27.4958 18.2686 23.9571 18.2686ZM23.9571 29.157C21.4164 29.157 19.4202 27.1608 19.4202 24.6201C19.4202 22.0795 21.4164 20.0833 23.9571 20.0833C26.4977 20.0833 28.4939 22.0795 28.4939 24.6201C28.4939 27.1608 26.4977 29.157 23.9571 29.157Z" fill="#FFCB5B"/>
<path d="M23.957 30.881C27.4958 30.9717 30.3086 28.0681 30.3086 24.6201H30.2179C29.7642 24.6201 29.4012 24.9831 29.3105 25.4367C29.129 26.7071 28.4939 27.8866 27.5865 28.7033C26.8606 29.4292 25.8625 29.8829 24.7737 30.0643C24.32 30.0643 23.957 30.4273 23.957 30.881Z" fill="#F6B545"/>
<path d="M23.9571 18.3585C20.4183 18.2678 17.6055 21.1714 17.6055 24.6194H17.6962C18.1499 24.6194 18.5128 24.2564 18.6036 23.8027C18.785 22.5324 19.4202 21.3528 20.3276 20.5362C21.0535 19.8103 22.0516 19.3566 23.1404 19.1751C23.5941 19.1751 23.9571 18.8122 23.9571 18.3585Z" fill="#FFE27A"/>
<path d="M20.0551 25.256C20.0551 22.7154 22.0513 20.7191 24.5919 20.7191C25.6808 20.7191 26.6789 21.0821 27.4955 21.808C26.5881 20.7191 25.4086 20.084 23.9568 20.084C21.4161 20.084 19.4199 22.0802 19.4199 24.6208C19.4199 26.0726 20.0551 27.2522 21.0532 28.0688C20.418 27.3429 20.0551 26.3448 20.0551 25.256Z" fill="#F19920"/>
<path d="M26.6798 27.4325C26.5891 27.4325 26.4983 27.4325 26.4076 27.3418C26.2261 27.1603 26.2261 26.8881 26.4076 26.7066C26.952 26.1622 27.2242 25.3456 27.2242 24.6197C27.2242 24.3475 27.4057 24.166 27.6779 24.166C27.9501 24.166 28.1316 24.3475 28.1316 24.6197C28.1316 25.6178 27.7686 26.6159 27.1335 27.3418C26.952 27.4325 26.7705 27.4325 26.6798 27.4325Z" fill="#FFCB5B"/>
<path d="M23.9562 27.3417C23.4118 27.3417 23.0488 26.9787 23.0488 26.4343V22.8048C23.0488 22.2604 23.4118 21.8975 23.9562 21.8975C24.5006 21.8975 24.8636 22.2604 24.8636 22.8048V26.4343C24.8636 26.9787 24.5006 27.3417 23.9562 27.3417Z" fill="#F19920"/>
</svg>
