<svg width="44" height="45" viewBox="0 0 44 45" fill="none" xmlns="http://www.w3.org/2000/svg">
<path d="M20.625 14.4644C20.625 15.8241 20.2218 17.1533 19.4664 18.2839C18.7109 19.4145 17.6372 20.2957 16.381 20.816C15.1247 21.3364 13.7424 21.4725 12.4088 21.2073C11.0751 20.942 9.85013 20.2872 8.88864 19.3257C7.92716 18.3642 7.27238 17.1392 7.0071 15.8056C6.74183 14.472 6.87798 13.0897 7.39833 11.8334C7.91868 10.5772 8.79987 9.50344 9.93046 8.748C11.061 7.99257 12.3903 7.58936 13.75 7.58936C15.5734 7.58936 17.322 8.31369 18.6114 9.603C19.9007 10.8923 20.625 12.641 20.625 14.4644ZM30.25 21.3394C31.6097 21.3394 32.939 20.9361 34.0695 20.1807C35.2001 19.4253 36.0813 18.3515 36.6017 17.0953C37.122 15.8391 37.2582 14.4567 36.9929 13.1231C36.7276 11.7895 36.0728 10.5645 35.1114 9.603C34.1499 8.64151 32.9249 7.98673 31.5912 7.72146C30.2576 7.45619 28.8753 7.59233 27.6191 8.11269C26.3628 8.63304 25.2891 9.51423 24.5336 10.6448C23.7782 11.7754 23.375 13.1046 23.375 14.4644C23.375 16.2877 24.0993 18.0364 25.3886 19.3257C26.678 20.615 28.4266 21.3394 30.25 21.3394ZM13.75 24.0894C12.3903 24.0894 11.061 24.4926 9.93046 25.248C8.79987 26.0034 7.91868 27.0772 7.39833 28.3334C6.87798 29.5897 6.74183 30.972 7.0071 32.3056C7.27238 33.6392 7.92716 34.8642 8.88864 35.8257C9.85013 36.7872 11.0751 37.442 12.4088 37.7073C13.7424 37.9725 15.1247 37.8364 16.381 37.316C17.6372 36.7957 18.7109 35.9145 19.4664 34.7839C20.2218 33.6533 20.625 32.3241 20.625 30.9644C20.625 29.141 19.9007 27.3923 18.6114 26.103C17.322 24.8137 15.5734 24.0894 13.75 24.0894ZM35.75 29.5894H31.625V25.4644C31.625 25.0997 31.4801 24.7499 31.2223 24.4921C30.9644 24.2342 30.6147 24.0894 30.25 24.0894C29.8853 24.0894 29.5356 24.2342 29.2777 24.4921C29.0199 24.7499 28.875 25.0997 28.875 25.4644V29.5894H24.75C24.3853 29.5894 24.0356 29.7342 23.7777 29.9921C23.5199 30.2499 23.375 30.5997 23.375 30.9644C23.375 31.329 23.5199 31.6788 23.7777 31.9366C24.0356 32.1945 24.3853 32.3394 24.75 32.3394H28.875V36.4644C28.875 36.829 29.0199 37.1788 29.2777 37.4366C29.5356 37.6945 29.8853 37.8394 30.25 37.8394C30.6147 37.8394 30.9644 37.6945 31.2223 37.4366C31.4801 37.1788 31.625 36.829 31.625 36.4644V32.3394H35.75C36.1147 32.3394 36.4644 32.1945 36.7223 31.9366C36.9801 31.6788 37.125 31.329 37.125 30.9644C37.125 30.5997 36.9801 30.2499 36.7223 29.9921C36.4644 29.7342 36.1147 29.5894 35.75 29.5894Z" fill="white"/>
</svg>
