<svg width="31" height="35" viewBox="0 0 31 35" fill="none" xmlns="http://www.w3.org/2000/svg">
<path d="M28.1563 0.986572H2.84375C2.09783 0.986572 1.38246 1.25655 0.855012 1.73711C0.327566 2.21767 0.03125 2.86945 0.03125 3.54907V31.7366C0.03125 32.4162 0.327566 33.068 0.855012 33.5485C1.38246 34.0291 2.09783 34.2991 2.84375 34.2991H28.1563C28.9022 34.2991 29.6175 34.0291 30.145 33.5485C30.6724 33.068 30.9688 32.4162 30.9688 31.7366V3.54907C30.9688 2.86945 30.6724 2.21767 30.145 1.73711C29.6175 1.25655 28.9022 0.986572 28.1563 0.986572ZM21.125 13.7991H28.1563V17.6428H21.125V13.7991ZM12.6875 20.2053H28.1563V24.0491H12.6875V20.2053ZM28.1563 31.7366H2.84375V26.6116H28.1563V31.7366Z" fill="white"/>
</svg>
