<svg width="44" height="27" viewBox="0 0 44 27" fill="none" xmlns="http://www.w3.org/2000/svg">
<path d="M27.6781 23.896H16.291V3.43262H27.6781V23.896Z" fill="#FF5F00"/>
<path d="M17.0137 13.6657C17.0119 11.6951 17.4586 9.7499 18.3198 7.97739C19.1809 6.20489 20.4341 4.65154 21.9843 3.43493C20.0646 1.92623 17.7591 0.988046 15.3314 0.727584C12.9037 0.467122 10.4517 0.894893 8.25563 1.96201C6.05954 3.02913 4.20795 4.69254 2.91248 6.76216C1.617 8.83177 0.929897 11.2241 0.929688 13.6657C0.930156 16.107 1.61734 18.499 2.91273 20.5683C4.20812 22.6376 6.05947 24.3008 8.25525 25.3679C10.451 26.4349 12.9027 26.8628 15.3301 26.6026C17.7575 26.3424 20.0628 25.4047 21.9826 23.8965C20.4328 22.6796 19.1802 21.1261 18.3193 19.3536C17.4585 17.5812 17.012 15.6362 17.0137 13.6657Z" fill="#EB001B"/>
<path d="M43.039 13.6657C43.0388 16.1074 42.3517 18.4997 41.0562 20.5693C39.7607 22.6389 37.9092 24.3023 35.7131 25.3694C33.517 26.4366 31.065 26.8643 28.6373 26.6039C26.2096 26.3434 23.9041 25.4052 21.9844 23.8965C25.011 21.5138 26.955 17.817 26.955 13.6657C26.955 9.51445 25.011 5.81761 21.9844 3.43493C23.9041 1.92623 26.2096 0.988046 28.6373 0.727584C31.065 0.467122 33.517 0.894893 35.7131 1.96201C37.9092 3.02913 39.7607 4.69254 41.0562 6.76216C42.3517 8.83177 43.0388 11.2241 43.039 13.6657Z" fill="#F79E1B"/>
</svg>
