<svg width="43" height="14" viewBox="0 0 43 14" fill="none" xmlns="http://www.w3.org/2000/svg">
<path d="M8.55282 7.50517L7.40244 1.94387C7.3217 1.61952 7.12445 1.33621 6.84829 1.14792C6.57212 0.959621 6.23634 0.879504 5.90491 0.922828H0.581857L0.541016 1.1883C4.67965 2.18212 7.41606 4.59178 8.55282 7.50517ZM12.4192 1.04535L9.05653 9.62894L8.70938 8.33562C7.61368 6.20432 5.96872 4.40426 3.9445 3.12148L7.01444 13.611H10.6426L16.0473 1.04535H12.4192ZM17.4427 1.04535L15.2985 13.6382H18.702L20.853 1.04535H17.4427ZM39.967 1.04535H37.2987C36.9254 0.996706 36.5465 1.07321 36.2213 1.2629C35.8961 1.45258 35.643 1.74474 35.5016 2.09363L30.4304 13.6246H34.0313C34.0313 13.6246 34.6167 12.0726 34.7528 11.7323H39.1433C39.2454 12.1679 39.5586 13.611 39.5586 13.611H42.7442L39.967 1.04535ZM35.7399 9.15926C36.0257 8.43772 37.1012 5.64006 37.1012 5.64006C37.1012 5.64006 37.3871 4.91852 37.5573 4.44203L37.7956 5.52434L38.5852 9.15926H35.7399ZM27.7689 6.08932C26.5777 5.51073 25.8425 5.11592 25.8493 4.53052C25.8561 3.94512 26.4688 3.44821 27.8097 3.44821C28.6898 3.42471 29.5647 3.58948 30.376 3.93151L30.6891 4.07445L31.152 1.35167C30.1681 0.995288 29.1284 0.81778 28.082 0.827529C24.6785 0.827529 22.3029 2.52927 22.2825 4.97978C22.2825 6.78363 23.9842 7.79787 25.2843 8.38327C26.5845 8.96867 27.0882 9.3975 27.0882 9.94887C27.0882 10.7929 26.0195 11.1809 25.0461 11.1809C23.9324 11.2066 22.828 10.9736 21.8196 10.5002L21.3772 10.296L20.8939 13.1141C22.1174 13.5704 23.4135 13.801 24.7194 13.7948C28.3203 13.7948 30.6619 12.1067 30.6891 9.4928C30.6823 8.07695 29.7701 6.98784 27.7689 6.08932Z" fill="#273991"/>
<path d="M7.40244 1.94367C7.3217 1.61932 7.12445 1.336 6.84829 1.14771C6.57212 0.959414 6.23634 0.879297 5.90491 0.922621H0.581857L0.541016 1.18809C4.67965 2.18872 7.41606 4.59158 8.55282 7.51177L7.40244 1.94367Z" fill="#F99F1B"/>
</svg>
