<svg width="168" height="59" viewBox="0 0 168 59" fill="none" xmlns="http://www.w3.org/2000/svg">
<path d="M27.164 51.6838C27.1604 52.7251 26.8383 53.7419 26.2387 54.6057C25.6391 55.4694 24.7888 56.1414 23.7954 56.5366C22.8019 56.9317 21.7099 57.0324 20.6575 56.8257C19.6051 56.6191 18.6395 56.1144 17.8828 55.3756C17.1262 54.6368 16.6124 53.6971 16.4066 52.6751C16.2007 51.6532 16.3119 50.595 16.7263 49.6344C17.1406 48.6738 17.8393 47.8538 18.7342 47.2783C19.6291 46.7028 20.6798 46.3975 21.7536 46.4011C23.1935 46.4059 24.5724 46.9652 25.5871 47.9559C26.6017 48.9466 27.169 50.2875 27.164 51.6838ZM49.9848 46.495C48.9111 46.4915 47.8603 46.7967 46.9654 47.3723C46.0706 47.9478 45.3718 48.7677 44.9575 49.7283C44.5432 50.6889 44.4319 51.7471 44.6378 52.7691C44.8437 53.791 45.3574 54.7308 46.1141 55.4696C46.8707 56.2084 47.8363 56.713 48.8888 56.9196C49.9412 57.1263 51.0332 57.0257 52.0266 56.6305C53.0201 56.2353 53.8703 55.5634 54.47 54.6996C55.0696 53.8358 55.3916 52.819 55.3953 51.7778C55.4002 50.3815 54.833 49.0405 53.8183 48.0498C52.8036 47.0591 51.4247 46.4998 49.9848 46.495ZM63.7378 8.46859L63.7378 21.6709L67.296 20.6461L56.9721 37.6667C56.4938 39.175 55.1328 40.981 53.8204 41.9141C52.508 42.8473 50.9203 43.3452 49.2929 43.3339L22.5601 43.245C20.9094 43.2343 19.3068 42.7052 17.9923 41.737C16.6778 40.7688 15.7222 39.4135 15.2688 37.8744L6.09923 6.33727L3.43627 6.32841C2.57234 6.32554 1.74497 5.98998 1.13618 5.39556C0.527382 4.80114 0.18703 3.99655 0.189995 3.15879C0.192959 2.32102 0.538997 1.51872 1.15198 0.928361C1.76497 0.338007 2.59469 0.00796407 3.45862 0.0108387L6.93867 0.022418C8.1177 0.0298732 9.26245 0.407846 10.2012 1.09963C11.1399 1.79142 11.8221 2.75973 12.1452 3.85929L14.1004 10.5757L56.9521 36.7154C56.9521 36.7154 44.3433 -9.84028 41.5969 15.9708C38.8506 41.7819 56.9721 36.7101 56.9721 36.7101C56.0052 38.2687 56.4977 36.4911 56.9521 36.7154C56.6506 36.3167 57.4064 36.9396 56.9521 36.7154C56.8682 36.2277 57.2535 37.114 56.9521 36.7154C57.036 37.203 56.6411 31.3053 63.7378 8.46859ZM56.9521 36.7154L14.1004 10.5757L21.5401 36.1605C21.6042 36.3809 21.7407 36.5749 21.9288 36.7133C22.1169 36.8517 24.5608 36.8757 24.7969 36.8763L52.0266 37.0591C38.4878 21.6709 56.7644 36.8484 56.9521 36.7154Z" fill="#DB9E00"/>
<path d="M79.5984 35.536H74.5293L83.7586 9.32019H89.6213L98.8634 35.536H93.7943L86.7923 14.6965H86.5875L79.5984 35.536Z" fill="#DB9E00"/>
<path d="M101.637 9.32019H106.72C108.734 9.32019 110.423 9.67008 111.789 10.3698C113.163 11.0696 114.199 12.051 114.899 13.314C115.608 14.5685 115.962 16.032 115.962 17.7046C115.962 19.3858 115.603 20.8451 114.886 22.0825C114.178 23.3113 113.133 24.2628 111.75 24.937C110.368 25.6026 108.67 25.9355 106.656 25.9355H101.638V21.9929H106.016C107.193 21.9929 108.158 21.8307 108.908 21.5064C109.659 21.1736 110.214 20.6915 110.573 20.06C110.94 19.4199 111.123 18.6348 111.123 17.7046C111.123 16.7744 110.94 15.9808 110.573 15.3237C110.206 14.6581 109.647 14.1546 108.896 13.8132C108.145 13.4633 107.176 13.2884 105.99 13.2884H101.638L101.637 9.32019ZM110.432 23.6569L116.922 35.536H111.622L105.247 23.6569H110.432Z" fill="#DB9E00"/>
<path d="M136.221 9.12183H140.97V26.2491C140.97 28.1266 140.526 29.7778 139.639 31.203C138.76 32.6281 137.522 33.7418 135.927 34.544C134.331 35.3376 132.466 35.7344 130.333 35.7344C128.191 35.7344 126.322 35.3376 124.726 34.544C123.13 33.7418 121.893 32.6281 121.014 31.203C120.135 29.7778 119.695 28.1266 119.695 26.2491V9.12183H124.444V25.8523C124.444 26.9446 124.683 27.9175 125.161 28.7709C125.648 29.6242 126.33 30.2941 127.209 30.7806C128.088 31.2585 129.129 31.4974 130.333 31.4974C131.536 31.4974 132.577 31.2585 133.456 30.7806C134.344 30.2941 135.026 29.6242 135.504 28.7709C135.982 27.9175 136.221 26.9446 136.221 25.8523V9.12183Z" fill="#DB9E00"/>
<path d="M161.038 9.32019V35.536H156.814L143.744 16.4762L143.744 9.32019L156.084 27.1899H156.314V9.32019H161.038Z" fill="#DB9E00"/>
<path d="M85.8555 48.3028C85.7848 47.9829 85.6648 47.6738 85.4957 47.3754C85.3265 47.074 85.1096 46.8033 84.8451 46.5634C84.5837 46.3204 84.2761 46.1282 83.9224 45.9867C83.5717 45.8452 83.178 45.7745 82.7413 45.7745C82.0738 45.7745 81.4817 45.9498 80.965 46.3004C80.4513 46.648 80.0484 47.1447 79.7562 47.7907C79.467 48.4335 79.3225 49.1948 79.3225 50.0745C79.3225 50.9449 79.467 51.7031 79.7562 52.3491C80.0453 52.995 80.4498 53.4948 80.9696 53.8485C81.4925 54.1992 82.0999 54.3745 82.792 54.3745C83.4103 54.3745 83.9577 54.2315 84.4345 53.9454C84.9143 53.6594 85.288 53.2503 85.5556 52.7182C85.8232 52.186 85.954 51.5493 85.9478 50.8081L86.1508 50.9049H82.9396V50.3698H86.5107V50.9049C86.5107 51.7385 86.3507 52.4567 86.0309 53.0596C85.714 53.6594 85.2742 54.1207 84.7113 54.4437C84.1515 54.7667 83.5118 54.9281 82.792 54.9281C81.98 54.9281 81.271 54.7267 80.6651 54.3237C80.0591 53.9208 79.5885 53.3564 79.2533 52.6305C78.9211 51.9015 78.755 51.0495 78.755 50.0745C78.755 49.3424 78.8503 48.678 79.041 48.0813C79.2317 47.4846 79.5039 46.974 79.8577 46.5496C80.2114 46.122 80.6328 45.7945 81.1218 45.5668C81.6109 45.3362 82.1507 45.2208 82.7413 45.2208C83.2765 45.2208 83.7578 45.31 84.1854 45.4884C84.6129 45.6637 84.982 45.9006 85.2927 46.1989C85.6064 46.4942 85.8602 46.8249 86.0539 47.1909C86.2477 47.5538 86.3784 47.9245 86.4461 48.3028H85.8555ZM88.6538 54.799V47.7122H89.2028V48.8195H89.2536C89.4074 48.4566 89.6673 48.1659 90.0333 47.9475C90.3993 47.7261 90.8161 47.6153 91.2836 47.6153C91.3328 47.6153 91.382 47.6153 91.4313 47.6153C91.4805 47.6153 91.5266 47.6169 91.5697 47.62V48.1874C91.5328 48.1844 91.4882 48.1798 91.4359 48.1736C91.3867 48.1644 91.3251 48.1598 91.2513 48.1598C90.8576 48.1598 90.507 48.2444 90.1994 48.4135C89.8949 48.5827 89.655 48.8165 89.4796 49.1148C89.3043 49.4101 89.2167 49.7484 89.2167 50.1298V54.799H88.6538ZM95.5006 54.9466C94.9162 54.9466 94.3964 54.7897 93.9411 54.476C93.4859 54.1592 93.1276 53.7239 92.8661 53.1703C92.6047 52.6166 92.474 51.9861 92.474 51.2787C92.474 50.5681 92.6047 49.9376 92.8661 49.387C93.1276 48.8334 93.4859 48.3981 93.9411 48.0813C94.3964 47.7645 94.9162 47.6061 95.5006 47.6061C96.085 47.6061 96.6048 47.7645 97.06 48.0813C97.5152 48.3981 97.8736 48.8334 98.135 49.387C98.3965 49.9407 98.5272 50.5712 98.5272 51.2787C98.5272 51.9861 98.3965 52.6166 98.135 53.1703C97.8736 53.7239 97.5152 54.1592 97.06 54.476C96.6048 54.7897 96.085 54.9466 95.5006 54.9466ZM95.5006 54.4252C95.9958 54.4252 96.4279 54.2853 96.797 54.0054C97.1692 53.7255 97.4568 53.3472 97.6598 52.8704C97.8659 52.3936 97.9689 51.8631 97.9689 51.2787C97.9689 50.6943 97.8659 50.1652 97.6598 49.6915C97.4537 49.2148 97.1661 48.8365 96.797 48.5566C96.4279 48.2736 95.9958 48.1321 95.5006 48.1321C95.0054 48.1321 94.5732 48.2736 94.2041 48.5566C93.835 48.8365 93.5474 49.2148 93.3413 49.6915C93.1353 50.1652 93.0322 50.6943 93.0322 51.2787C93.0322 51.8631 93.1337 52.3936 93.3367 52.8704C93.5428 53.3472 93.8304 53.7255 94.1995 54.0054C94.5717 54.2853 95.0054 54.4252 95.5006 54.4252ZM103.124 54.9466C102.521 54.9466 101.99 54.7882 101.532 54.4714C101.074 54.1515 100.715 53.7147 100.457 53.1611C100.202 52.6074 100.074 51.98 100.074 51.2787C100.074 50.5774 100.203 49.9499 100.462 49.3963C100.72 48.8426 101.078 48.4058 101.537 48.0859C101.995 47.7661 102.522 47.6061 103.119 47.6061C103.568 47.6061 103.977 47.6984 104.346 47.8829C104.718 48.0675 105.026 48.3243 105.269 48.6534C105.515 48.9826 105.672 49.364 105.74 49.7976H105.168C105.075 49.3178 104.845 48.921 104.475 48.6073C104.109 48.2905 103.659 48.1321 103.124 48.1321C102.644 48.1321 102.216 48.2674 101.841 48.5381C101.466 48.8057 101.17 49.1763 100.955 49.65C100.74 50.1206 100.632 50.6604 100.632 51.2694C100.632 51.8692 100.737 52.4075 100.946 52.8842C101.155 53.3579 101.447 53.7332 101.823 54.01C102.198 54.2868 102.632 54.4252 103.124 54.4252C103.471 54.4252 103.788 54.356 104.074 54.2176C104.363 54.0792 104.605 53.8824 104.798 53.6271C104.992 53.3718 105.12 53.0734 105.181 52.732H105.753C105.686 53.1688 105.532 53.5532 105.292 53.8854C105.052 54.2176 104.746 54.4775 104.374 54.6652C104.002 54.8528 103.585 54.9466 103.124 54.9466ZM110.436 54.9466C109.797 54.9466 109.24 54.7882 108.766 54.4714C108.293 54.1546 107.927 53.7209 107.668 53.1703C107.41 52.6197 107.281 51.9923 107.281 51.2879C107.281 50.5804 107.41 49.9499 107.668 49.3963C107.93 48.8426 108.288 48.4058 108.743 48.0859C109.198 47.7661 109.718 47.6061 110.303 47.6061C110.699 47.6061 111.075 47.6861 111.428 47.846C111.785 48.0029 112.099 48.2305 112.37 48.5289C112.643 48.8272 112.857 49.1871 113.011 49.6085C113.168 50.0299 113.246 50.5036 113.246 51.0295V51.3802H107.636V50.868H112.683C112.683 50.3544 112.579 49.8915 112.37 49.4793C112.16 49.0671 111.876 48.7396 111.516 48.4966C111.156 48.2536 110.752 48.1321 110.303 48.1321C109.832 48.1321 109.412 48.2643 109.043 48.5289C108.677 48.7903 108.386 49.144 108.171 49.59C107.959 50.036 107.848 50.5343 107.839 51.0849V51.3156C107.839 51.9061 107.942 52.4367 108.148 52.9073C108.357 53.3748 108.656 53.7455 109.043 54.0192C109.431 54.2899 109.895 54.4252 110.436 54.4252C110.824 54.4252 111.155 54.3606 111.428 54.2315C111.705 54.0992 111.931 53.9393 112.107 53.7516C112.282 53.564 112.414 53.3825 112.503 53.2072L113.016 53.4148C112.908 53.6517 112.74 53.8885 112.513 54.1253C112.288 54.3591 112.002 54.5544 111.654 54.7113C111.31 54.8682 110.904 54.9466 110.436 54.9466ZM115.184 54.799V47.7122H115.733V48.8195H115.784C115.938 48.4566 116.197 48.1659 116.563 47.9475C116.93 47.7261 117.346 47.6153 117.814 47.6153C117.863 47.6153 117.912 47.6153 117.961 47.6153C118.011 47.6153 118.057 47.6169 118.1 47.62V48.1874C118.063 48.1844 118.018 48.1798 117.966 48.1736C117.917 48.1644 117.855 48.1598 117.782 48.1598C117.388 48.1598 117.037 48.2444 116.73 48.4135C116.425 48.5827 116.185 48.8165 116.01 49.1148C115.835 49.4101 115.747 49.7484 115.747 50.1298V54.799H115.184ZM120.28 57.4565C120.138 57.4565 119.998 57.4411 119.86 57.4103C119.722 57.3796 119.597 57.3396 119.486 57.2904L119.652 56.7967C119.942 56.9074 120.203 56.9474 120.437 56.9167C120.674 56.8859 120.883 56.7782 121.064 56.5937C121.246 56.4091 121.399 56.1385 121.526 55.7817L121.849 54.8958L119.251 47.7122H119.855L122.107 54.0746H122.153L124.405 47.7122H125.009L122.019 56.0031C121.905 56.323 121.762 56.5906 121.59 56.8059C121.418 57.0212 121.221 57.1827 121 57.2904C120.781 57.4011 120.541 57.4565 120.28 57.4565ZM135.714 47.7122C135.665 47.1248 135.425 46.6495 134.994 46.2866C134.567 45.9236 134.013 45.7422 133.333 45.7422C132.875 45.7422 132.467 45.8267 132.111 45.9959C131.754 46.1651 131.474 46.3958 131.271 46.688C131.068 46.9802 130.966 47.3155 130.966 47.6938C130.966 47.9368 131.013 48.1567 131.105 48.3535C131.2 48.5473 131.334 48.7211 131.506 48.8749C131.679 49.0256 131.883 49.1579 132.12 49.2717C132.357 49.3855 132.618 49.4855 132.904 49.5716L133.938 49.8761C134.291 49.9837 134.617 50.1083 134.916 50.2498C135.217 50.3913 135.479 50.5605 135.7 50.7573C135.925 50.9511 136.098 51.1787 136.222 51.4401C136.348 51.7016 136.411 52.003 136.411 52.3444C136.411 52.8427 136.281 53.2887 136.023 53.6824C135.768 54.0761 135.403 54.3868 134.93 54.6144C134.459 54.8389 133.904 54.9512 133.264 54.9512C132.655 54.9512 132.125 54.8482 131.672 54.6421C131.223 54.436 130.868 54.1499 130.607 53.7839C130.345 53.4148 130.197 52.9904 130.164 52.5105H130.754C130.785 52.9012 130.91 53.2395 131.128 53.5256C131.349 53.8085 131.643 54.0269 132.009 54.1807C132.375 54.3345 132.793 54.4114 133.264 54.4114C133.772 54.4114 134.219 54.3253 134.607 54.153C134.994 53.9777 135.297 53.7347 135.516 53.4241C135.734 53.1134 135.843 52.752 135.843 52.3398C135.843 52.0076 135.765 51.7231 135.608 51.4863C135.451 51.2494 135.219 51.0449 134.911 50.8727C134.607 50.7004 134.228 50.5466 133.776 50.4113L132.674 50.0791C131.935 49.8546 131.371 49.5485 130.98 49.161C130.593 48.7734 130.399 48.2905 130.399 47.7122C130.399 47.2263 130.528 46.7956 130.787 46.4204C131.045 46.0421 131.396 45.7452 131.838 45.5299C132.284 45.3146 132.787 45.207 133.347 45.207C133.91 45.207 134.407 45.3162 134.837 45.5345C135.268 45.7499 135.609 46.0467 135.862 46.425C136.114 46.8003 136.254 47.2293 136.281 47.7122H135.714ZM140.997 47.7122V48.2151H137.901V47.7122H140.997ZM138.948 46.0144H139.506V53.1242C139.506 53.4133 139.562 53.6501 139.673 53.8347C139.786 54.0162 139.934 54.1515 140.116 54.2407C140.3 54.3268 140.497 54.3699 140.706 54.3699C140.808 54.3699 140.895 54.3622 140.969 54.3468C141.046 54.3314 141.118 54.3114 141.186 54.2868L141.324 54.799C141.238 54.8297 141.143 54.8559 141.038 54.8774C140.934 54.902 140.811 54.9143 140.669 54.9143C140.374 54.9143 140.094 54.8482 139.829 54.7159C139.568 54.5836 139.356 54.3914 139.193 54.1392C139.03 53.887 138.948 53.5825 138.948 53.2257V46.0144ZM145.643 54.9466C145.058 54.9466 144.539 54.7897 144.083 54.476C143.628 54.1592 143.27 53.7239 143.008 53.1703C142.747 52.6166 142.616 51.9861 142.616 51.2787C142.616 50.5681 142.747 49.9376 143.008 49.387C143.27 48.8334 143.628 48.3981 144.083 48.0813C144.539 47.7645 145.058 47.6061 145.643 47.6061C146.227 47.6061 146.747 47.7645 147.202 48.0813C147.657 48.3981 148.016 48.8334 148.277 49.387C148.539 49.9407 148.669 50.5712 148.669 51.2787C148.669 51.9861 148.539 52.6166 148.277 53.1703C148.016 53.7239 147.657 54.1592 147.202 54.476C146.747 54.7897 146.227 54.9466 145.643 54.9466ZM145.643 54.4252C146.138 54.4252 146.57 54.2853 146.939 54.0054C147.311 53.7255 147.599 53.3472 147.802 52.8704C148.008 52.3936 148.111 51.8631 148.111 51.2787C148.111 50.6943 148.008 50.1652 147.802 49.6915C147.596 49.2148 147.308 48.8365 146.939 48.5566C146.57 48.2736 146.138 48.1321 145.643 48.1321C145.148 48.1321 144.715 48.2736 144.346 48.5566C143.977 48.8365 143.69 49.2148 143.484 49.6915C143.277 50.1652 143.174 50.6943 143.174 51.2787C143.174 51.8631 143.276 52.3936 143.479 52.8704C143.685 53.3472 143.973 53.7255 144.342 54.0054C144.714 54.2853 145.148 54.4252 145.643 54.4252ZM150.608 54.799V47.7122H151.157V48.8195H151.208C151.362 48.4566 151.622 48.1659 151.988 47.9475C152.354 47.7261 152.771 47.6153 153.238 47.6153C153.287 47.6153 153.337 47.6153 153.386 47.6153C153.435 47.6153 153.481 47.6169 153.524 47.62V48.1874C153.487 48.1844 153.443 48.1798 153.39 48.1736C153.341 48.1644 153.28 48.1598 153.206 48.1598C152.812 48.1598 152.462 48.2444 152.154 48.4135C151.849 48.5827 151.61 48.8165 151.434 49.1148C151.259 49.4101 151.171 49.7484 151.171 50.1298V54.799H150.608ZM157.584 54.9466C156.945 54.9466 156.388 54.7882 155.914 54.4714C155.44 54.1546 155.074 53.7209 154.816 53.1703C154.558 52.6197 154.429 51.9923 154.429 51.2879C154.429 50.5804 154.558 49.9499 154.816 49.3963C155.078 48.8426 155.436 48.4058 155.891 48.0859C156.346 47.7661 156.866 47.6061 157.451 47.6061C157.847 47.6061 158.223 47.6861 158.576 47.846C158.933 48.0029 159.247 48.2305 159.517 48.5289C159.791 48.8272 160.005 49.1871 160.159 49.6085C160.316 50.0299 160.394 50.5036 160.394 51.0295V51.3802H154.784V50.868H159.831C159.831 50.3544 159.727 49.8915 159.517 49.4793C159.308 49.0671 159.024 48.7396 158.664 48.4966C158.304 48.2536 157.9 48.1321 157.451 48.1321C156.98 48.1321 156.56 48.2643 156.191 48.5289C155.825 48.7903 155.534 49.144 155.319 49.59C155.107 50.036 154.996 50.5343 154.987 51.0849V51.3156C154.987 51.9061 155.09 52.4367 155.296 52.9073C155.505 53.3748 155.803 53.7455 156.191 54.0192C156.579 54.2899 157.043 54.4252 157.584 54.4252C157.972 54.4252 158.303 54.3606 158.576 54.2315C158.853 54.0992 159.079 53.9393 159.254 53.7516C159.43 53.564 159.562 53.3825 159.651 53.2072L160.163 53.4148C160.056 53.6517 159.888 53.8885 159.66 54.1253C159.436 54.3591 159.15 54.5544 158.802 54.7113C158.458 54.8682 158.052 54.9466 157.584 54.9466Z" fill="white"/>
</svg>
