<svg width="81" height="84" viewBox="0 0 81 84" fill="none" xmlns="http://www.w3.org/2000/svg">
<path d="M59.6087 12.6013C58.9562 9.24277 57.1568 6.2154 54.5185 4.03725C51.8801 1.8591 48.5667 0.665563 45.1454 0.660889C44.364 0.660889 43.6146 0.971315 43.062 1.52388C42.5094 2.07644 42.199 2.82587 42.199 3.60732C42.199 4.38876 42.5094 5.13819 43.062 5.69075C43.6146 6.24332 44.364 6.55374 45.1454 6.55374C47.0172 6.55374 48.8406 7.1479 50.353 8.2506C51.8654 9.3533 52.9887 10.9076 53.5612 12.6897C47.9545 13.5058 42.8284 16.3116 39.1194 20.5947C35.4105 24.8778 33.3661 30.3522 33.3597 36.018C33.3597 53.2362 23.8759 64.7457 5.17348 70.2702C3.89419 70.6431 2.77906 71.4386 2.01005 72.5268C1.24104 73.615 0.863551 74.9318 0.939194 76.2621C1.01484 77.5925 1.53914 78.858 2.42655 79.852C3.31395 80.8461 4.51207 81.51 5.82538 81.7355C11.3611 82.6925 16.9691 83.1694 22.5869 83.1608C37.6063 83.1608 54.3199 79.7908 65.8735 70.1008C75.582 61.9613 80.5026 50.4923 80.5026 36.018C80.4964 30.2321 78.3647 24.6501 74.5126 20.3328C70.6605 16.0156 65.3565 13.2641 59.6087 12.6013ZM68.7168 32.7033L58.2497 27.4844C57.8403 27.2796 57.3889 27.1729 56.9311 27.1729C56.4734 27.1729 56.022 27.2796 55.6126 27.4844L45.1454 32.7033L40.2212 30.243C41.4219 26.7667 43.6768 23.7515 46.672 21.6172C49.6671 19.4829 53.2534 18.3359 56.9311 18.3359C60.6089 18.3359 64.1951 19.4829 67.1903 21.6172C70.1854 23.7515 72.4404 26.7667 73.6411 30.243L68.7168 32.7033Z" fill="#DB9E00"/>
</svg>
