<svg width="43" height="43" viewBox="0 0 43 43" fill="none" xmlns="http://www.w3.org/2000/svg">
<path d="M24.9068 2.06103C24.9027 1.59207 25.085 1.14067 25.4137 0.806128C25.7423 0.471586 26.1904 0.28131 26.6594 0.277156L39.0369 0.16751C39.9748 0.159202 40.8776 0.523821 41.5467 1.18115C42.2158 1.83849 42.5963 2.73469 42.6046 3.6726L42.9179 39.0368C42.9262 39.9747 42.5616 40.8775 41.9042 41.5466C41.2469 42.2157 40.3507 42.5963 39.4128 42.6046L27.0353 42.7142C26.5664 42.7184 26.115 42.5361 25.7804 42.2074C25.4459 41.8787 25.2556 41.4306 25.2514 40.9617C25.2473 40.4927 25.4296 40.0413 25.7583 39.7068C26.0869 39.3722 26.535 39.1819 27.004 39.1778L39.3815 39.0681L39.0682 3.70393L26.6907 3.81358C26.2218 3.81773 25.7704 3.63542 25.4358 3.30676C25.1013 2.97809 24.911 2.52999 24.9068 2.06103ZM0.852476 22.9771L9.77185 31.7398C10.0213 31.9852 10.338 32.151 10.6818 32.2163C11.0256 32.2816 11.381 32.2435 11.7031 32.1066C12.0252 31.9698 12.2994 31.7405 12.4911 31.4478C12.6828 31.155 12.7834 30.812 12.78 30.462L12.7173 23.3892L26.863 23.2639C27.332 23.2597 27.7801 23.0695 28.1087 22.7349C28.4374 22.4004 28.6197 21.949 28.6156 21.48C28.6114 21.0111 28.4211 20.563 28.0866 20.2343C27.7521 19.9056 27.3007 19.7233 26.8317 19.7275L12.686 19.8528L12.6234 12.7799C12.6205 12.43 12.5139 12.0888 12.3171 11.7995C12.1202 11.5102 11.842 11.2858 11.5175 11.1547C11.1931 11.0236 10.837 10.9917 10.4944 11.0631C10.1518 11.1345 9.83815 11.3059 9.59305 11.5557L0.830312 20.475C0.667364 20.6407 0.53867 20.8369 0.451587 21.0523C0.364505 21.2678 0.320745 21.4983 0.322803 21.7307C0.324862 21.963 0.372698 22.1927 0.463584 22.4066C0.554469 22.6204 0.686619 22.8143 0.852476 22.9771Z" fill="#6C6C6C"/>
</svg>
