<svg width="46" height="46" viewBox="0 0 46 46" fill="none" xmlns="http://www.w3.org/2000/svg">
<path d="M23.0158 10.2465C23.0958 9.13787 23.462 8.06892 24.0785 7.14402C24.6949 6.21911 25.5407 5.46985 26.5332 4.96938C27.5257 4.46891 28.631 4.23433 29.7412 4.28853C30.8514 4.34274 31.9286 4.68388 32.8676 5.27866C32.9749 5.3489 33.0614 5.44676 33.1179 5.56196C33.1743 5.67716 33.1987 5.80544 33.1885 5.93333C33.1783 6.06122 33.1338 6.18399 33.0597 6.28875C32.9857 6.3935 32.8847 6.47638 32.7676 6.52866C31.1352 7.26307 29.7496 8.45311 28.7771 9.95585C27.8046 11.4586 27.2867 13.2101 27.2854 15.0001C27.2854 15.209 27.2854 15.4179 27.3069 15.6233C27.3167 15.7531 27.2909 15.8831 27.2322 15.9993C27.1735 16.1155 27.0842 16.2135 26.9739 16.2826C26.8636 16.3517 26.7365 16.3894 26.6064 16.3915C26.4762 16.3937 26.3479 16.3602 26.2354 16.2947C25.1831 15.6928 24.3224 14.8055 23.7527 13.7353C23.183 12.6651 22.9275 11.4557 23.0158 10.2465ZM42.9997 28.6804C43.0023 29.4968 42.7761 30.2975 42.3469 30.9918C41.9177 31.6862 41.3025 32.2464 40.5711 32.609L40.4926 32.6447L33.5587 35.5983C33.4901 35.6285 33.419 35.6524 33.3461 35.6697L21.9176 38.5269C21.8044 38.556 21.688 38.571 21.5711 38.5715H2.99972C2.24196 38.5715 1.51523 38.2705 0.979416 37.7347C0.443598 37.1989 0.142578 36.4721 0.142578 35.7144V28.5715C0.142578 27.8138 0.443598 27.087 0.979416 26.5512C1.51523 26.0154 2.24196 25.7144 2.99972 25.7144H8.12294L12.1622 21.6733C12.6919 21.1413 13.3217 20.7195 14.0153 20.4323C14.7089 20.1451 15.4526 19.9982 16.2033 20.0001H25.1426C25.8972 20 26.642 20.1707 27.3212 20.4994C28.0005 20.8282 28.5965 21.3063 29.0646 21.8982C29.5328 22.49 29.8609 23.1801 30.0244 23.9168C30.1878 24.6535 30.1825 25.4176 30.0086 26.1519L37.4801 24.434C38.1305 24.2618 38.8118 24.2412 39.4714 24.3738C40.1311 24.5065 40.7515 24.7888 41.2848 25.1991C41.8181 25.6094 42.25 26.1366 42.5473 26.7402C42.8447 27.3438 42.9995 28.0076 42.9997 28.6804ZM40.1426 28.6804C40.1424 28.4442 40.0877 28.2113 39.9829 27.9996C39.8781 27.7879 39.7259 27.6032 39.5382 27.4599C39.3504 27.3165 39.1322 27.2184 38.9004 27.173C38.6686 27.1276 38.4294 27.1363 38.2015 27.1983L38.1462 27.2126L26.1819 29.9644C26.0769 29.9878 25.9697 29.9998 25.8622 30.0001H20.1426C19.7637 30.0001 19.4003 29.8496 19.1324 29.5817C18.8645 29.3138 18.714 28.9504 18.714 28.5715C18.714 28.1926 18.8645 27.8293 19.1324 27.5614C19.4003 27.2935 19.7637 27.1429 20.1426 27.1429H25.1426C25.7109 27.1429 26.2559 26.9172 26.6578 26.5153C27.0597 26.1134 27.2854 25.5684 27.2854 25.0001C27.2854 24.4318 27.0597 23.8867 26.6578 23.4849C26.2559 23.083 25.7109 22.8572 25.1426 22.8572H16.2033C15.8279 22.856 15.4561 22.9295 15.1094 23.0732C14.7627 23.217 14.448 23.4283 14.1836 23.6947L10.1426 27.734V35.7144H21.3926L32.5408 32.9269L39.3265 30.0376C39.5735 29.9075 39.7801 29.7122 39.924 29.4729C40.0679 29.2337 40.1435 28.9596 40.1426 28.6804ZM30.1426 15.0001C30.1426 16.2715 30.5196 17.5144 31.226 18.5716C31.9324 19.6288 32.9364 20.4527 34.111 20.9393C35.2857 21.4259 36.5783 21.5532 37.8253 21.3051C39.0723 21.0571 40.2178 20.4448 41.1168 19.5458C42.0159 18.6467 42.6282 17.5013 42.8762 16.2542C43.1242 15.0072 42.9969 13.7146 42.5104 12.54C42.0238 11.3653 41.1998 10.3613 40.1427 9.65492C39.0855 8.94854 37.8426 8.57151 36.5712 8.57151C34.8662 8.57151 33.2311 9.24881 32.0255 10.4544C30.8199 11.66 30.1426 13.2951 30.1426 15.0001Z" fill="white"/>
</svg>
