<svg width="66" height="64" viewBox="0 0 66 64" fill="none" xmlns="http://www.w3.org/2000/svg">
<path d="M23.2916 22.5858C24.0351 21.8648 25.205 21.8094 26.0141 22.4194L26.2084 22.5858L42.7084 38.5858C43.5139 39.3668 43.5139 40.6332 42.7084 41.4142C41.9649 42.1352 40.795 42.1906 39.9859 41.5806L39.7916 41.4142L23.2916 25.4142C22.4861 24.6332 22.4861 23.3668 23.2916 22.5858Z" fill="black"/>
<path d="M39.7916 22.5858C40.597 21.8047 41.903 21.8047 42.7084 22.5858C43.4519 23.3068 43.5091 24.4412 42.88 25.2258L42.7084 25.4142L26.2084 41.4142C25.403 42.1953 24.097 42.1953 23.2916 41.4142C22.5481 40.6932 22.4909 39.5588 23.12 38.7742L23.2916 38.5858L39.7916 22.5858Z" fill="black"/>
</svg>
