<svg width="45" height="26" viewBox="0 0 45 26" fill="none" xmlns="http://www.w3.org/2000/svg">
<path fill-rule="evenodd" clip-rule="evenodd" d="M1.73238 0.664062H44.0972V25.8987H0.828125V0.664062H1.73238Z" fill="#E53935"/>
<path fill-rule="evenodd" clip-rule="evenodd" d="M17.0527 16.8905H38.6873V18.6906H17.0527V16.8905ZM17.0527 11.4819H38.6873V13.2819H17.0527V11.4819ZM17.0527 6.07324H38.6873V7.8733H17.0527V6.07324Z" fill="#B71C1C"/>
<path fill-rule="evenodd" clip-rule="evenodd" d="M6.07617 0.664062H11.6538V25.8987H6.07617V0.664062Z" fill="#F9A825"/>
<path d="M13.1249 16.3231L9.01775 13.0356L4.91056 16.3315L3.43164 17.5147L3.44854 15.6216L3.4908 9.02985L3.5077 7.43262L4.85986 8.27772L9.01775 10.8299L13.1756 8.26927L14.5278 7.43262L14.5447 9.03831L14.587 15.6301L14.5954 17.5062L13.1249 16.3231Z" fill="#FBC02D"/>
</svg>
