<svg width="21" height="21" viewBox="0 0 21 21" fill="none" xmlns="http://www.w3.org/2000/svg">
<path d="M16.0397 7.65459L16.1202 7.65568C16.4189 7.68038 16.6479 7.92843 16.6638 8.22701L16.6561 8.39349L16.4015 11.5106L16.1345 14.5526C16.078 15.1599 16.0275 15.6721 15.9838 16.0753C15.8321 17.4805 14.92 18.3494 13.5449 18.3752C11.4023 18.4147 9.3427 18.4143 7.34267 18.3711C6.00738 18.343 5.10871 17.4647 4.95969 16.081L4.8567 15.0616L4.67672 13.0841L4.49236 10.9142L4.28156 8.30943C4.25536 7.97523 4.49831 7.68254 4.8242 7.65567C5.12293 7.63104 5.38766 7.83833 5.44989 8.13047L5.47411 8.3692L5.67204 10.8111L5.88817 13.3422C5.98511 14.4379 6.06919 15.3246 6.13647 15.9475C6.22139 16.7361 6.6366 17.1419 7.36727 17.1572C9.35167 17.2001 11.3959 17.2005 13.5235 17.1612C14.2985 17.1467 14.7203 16.7449 14.8071 15.9415L14.9096 14.9275C14.9396 14.6151 14.9717 14.2701 15.0056 13.8953L15.222 11.4061L15.4826 8.212C15.5067 7.90566 15.7486 7.67084 16.0397 7.65459ZM3.77948 6.25464C3.45254 6.25464 3.1875 5.98285 3.1875 5.64758C3.1875 5.34025 3.41021 5.08626 3.69915 5.04606L3.77948 5.04052H6.35845C6.66492 5.04052 6.93322 4.83829 7.02919 4.54692L7.05267 4.45695L7.25309 3.43485C7.42959 2.75791 8.00271 2.27595 8.67433 2.22159L8.80134 2.21646H12.1425C12.8252 2.21646 13.4281 2.65861 13.6602 3.34182L13.6993 3.4727L13.8911 4.45671C13.9513 4.76499 14.1972 4.99525 14.4947 5.03456L14.5854 5.04052H17.1645C17.4914 5.04052 17.7565 5.31231 17.7565 5.64758C17.7565 5.95491 17.5338 6.2089 17.2448 6.2491L17.1645 6.25464H3.77948ZM12.1425 3.43059H8.80134C8.63524 3.43059 8.4876 3.53028 8.42627 3.65557L8.40547 3.71062L8.21363 4.69511C8.19016 4.81527 8.15616 4.93099 8.11272 5.04132L12.8312 5.04147C12.8041 4.97264 12.7806 4.90171 12.7611 4.82891L12.7301 4.69487L12.5469 3.74847C12.5041 3.58426 12.3719 3.46404 12.2123 3.43655L12.1425 3.43059Z" fill="#EA736D"/>
</svg>
