<svg width="21" height="21" viewBox="0 0 21 21" fill="none" xmlns="http://www.w3.org/2000/svg">
<path d="M17.8455 6.16508L14.4552 2.774C14.3425 2.66123 14.2086 2.57178 14.0613 2.51075C13.914 2.44972 13.7561 2.4183 13.5966 2.4183C13.4372 2.4183 13.2793 2.44972 13.132 2.51075C12.9846 2.57178 12.8508 2.66123 12.738 2.774L3.38127 12.1315C3.26805 12.2439 3.17827 12.3776 3.11718 12.5249C3.05609 12.6722 3.02489 12.8302 3.0254 12.9897V16.3808C3.0254 16.7028 3.15331 17.0116 3.38099 17.2393C3.60868 17.467 3.91748 17.5949 4.23948 17.5949H7.63056C7.79005 17.5954 7.94805 17.5642 8.09538 17.5031C8.24271 17.442 8.37643 17.3522 8.48876 17.239L17.8455 7.88224C17.9583 7.7695 18.0477 7.63565 18.1088 7.48833C18.1698 7.34101 18.2012 7.18312 18.2012 7.02366C18.2012 6.8642 18.1698 6.7063 18.1088 6.55899C18.0477 6.41167 17.9583 6.27782 17.8455 6.16508ZM4.49064 12.7386L11.3464 5.8828L12.6121 7.14924L5.75708 14.0042L4.49064 12.7386ZM4.23948 14.2038L6.41648 16.3808H4.23948V14.2038ZM7.88172 16.1296L6.61528 14.8632L13.471 8.00744L14.7367 9.27388L7.88172 16.1296Z" fill="#343330"/>
</svg>
