<svg width="46" height="47" viewBox="0 0 46 47" fill="none" xmlns="http://www.w3.org/2000/svg">
<path d="M41.428 17.5714C41.4288 17.4386 41.4107 17.3063 41.3744 17.1785L38.8119 8.21425C38.6397 7.61945 38.2797 7.09633 37.7857 6.72299C37.2916 6.34965 36.6901 6.14613 36.0709 6.14282H9.6423C9.02308 6.14613 8.42154 6.34965 7.92751 6.72299C7.43348 7.09633 7.07346 7.61945 6.90123 8.21425L4.34051 17.1785C4.30362 17.3062 4.28499 17.4385 4.28516 17.5714V20.4285C4.28516 21.5374 4.54334 22.6311 5.03925 23.6229C5.53516 24.6147 6.25519 25.4775 7.1423 26.1428V37.5714C7.1423 38.3292 7.44332 39.0559 7.97914 39.5917C8.51496 40.1275 9.24168 40.4285 9.99944 40.4285H35.7137C36.4715 40.4285 37.1982 40.1275 37.734 39.5917C38.2699 39.0559 38.5709 38.3292 38.5709 37.5714V26.1428C39.458 25.4775 40.178 24.6147 40.6739 23.6229C41.1698 22.6311 41.428 21.5374 41.428 20.4285V17.5714ZM15.7137 20.4285C15.7135 21.1655 15.5232 21.89 15.1612 22.5319C14.7993 23.1739 14.2779 23.7117 13.6474 24.0933C13.017 24.475 12.2987 24.6876 11.5621 24.7106C10.8255 24.7337 10.0954 24.5664 9.4423 24.225C9.34293 24.1476 9.23362 24.0839 9.1173 24.0357C8.51208 23.6482 8.014 23.1148 7.66888 22.4845C7.32376 21.8541 7.14268 21.1472 7.1423 20.4285V19H15.7137V20.4285ZM27.1423 20.4285C27.1423 21.5652 26.6908 22.6553 25.887 23.459C25.0833 24.2627 23.9932 24.7142 22.8566 24.7142C21.7199 24.7142 20.6299 24.2627 19.8261 23.459C19.0224 22.6553 18.5709 21.5652 18.5709 20.4285V19H27.1423V20.4285ZM38.5709 20.4285C38.5703 21.1473 38.3889 21.8544 38.0435 22.4848C37.6981 23.1151 37.1996 23.6484 36.5941 24.0357C36.4793 24.084 36.3713 24.1471 36.2727 24.2232C35.6196 24.565 34.8895 24.7326 34.1528 24.7098C33.4161 24.6871 32.6977 24.4747 32.067 24.0932C31.4363 23.7117 30.9147 23.174 30.5525 22.5321C30.1903 21.8901 29.9998 21.1656 29.9994 20.4285V19H38.5709V20.4285Z" fill="white"/>
</svg>
