<svg xmlns="http://www.w3.org/2000/svg" width="54" height="49" viewBox="0 0 54 49" fill="none">
<path d="M0 14.1112C0 6.31781 6.31781 0 14.1112 0H39.5114C47.3048 0 53.6226 6.31781 53.6226 14.1112V34.8888C53.6226 42.6822 47.3048 49 39.5114 49H14.1112C6.3178 49 0 42.6822 0 34.8888V14.1112Z" fill="black"/>
<path fill-rule="evenodd" clip-rule="evenodd" d="M26.0494 12C32.1512 12 37.0987 16.9463 37.0987 23.0494C37.0987 29.1524 32.1512 34.0987 26.0494 34.0987C19.9463 34.0987 15 29.1524 15 23.0494C15 16.9463 19.9463 12 26.0494 12Z" stroke="#DB9E00" stroke-width="1.82212" stroke-linecap="round" stroke-linejoin="round"/>
<path fill-rule="evenodd" clip-rule="evenodd" d="M37.1791 32.3582C38.1846 32.3582 38.9996 33.1744 38.9996 34.1786C38.9996 35.1853 38.1846 36.0003 37.1791 36.0003C36.1736 36.0003 35.3574 35.1853 35.3574 34.1786C35.3574 33.1744 36.1736 32.3582 37.1791 32.3582Z" stroke="#DB9E00" stroke-width="1.82212" stroke-linecap="round" stroke-linejoin="round"/>
</svg>